<?xml version="1.0" encoding="utf-8"?>
<!-- Generator: Adobe Illustrator 19.1.0, SVG Export Plug-In . SVG Version: 6.00 Build 0)  -->
<svg version="1.1" id="Layer_1" xmlns="http://www.w3.org/2000/svg" xmlns:xlink="http://www.w3.org/1999/xlink" x="0px" y="0px"
	 viewBox="-120.7 236.8 102.1 102.1" style="enable-background:new -120.7 236.8 102.1 102.1;" xml:space="preserve">
<style type="text/css">
	.st0{fill:#23485B;}
	.st1{fill:#BF1A16;}
	.st2{fill:none;stroke:#23485B;stroke-miterlimit:10;}
</style>
<path class="st2" d="M-53.1,328.6h-35.1c-3.3,0-6-2.7-6-6V250c0-3.3,2.7-6,6-6h35.1c3.3,0,6,2.7,6,6v72.7
	C-47.2,326-49.8,328.6-53.1,328.6z"/>
<rect x="-91.9" y="253.5" class="st2" width="42.3" height="65.8"/>
<path class="st2" d="M-67.7,326.3h-5.9c-1,0-1.8-0.8-1.8-1.8v-1.2c0-1,0.8-1.8,1.8-1.8h5.9c1,0,1.8,0.8,1.8,1.8v1.2
	C-65.9,325.5-66.7,326.3-67.7,326.3z"/>
<rect x="-75.4" y="246.4" class="st2" width="9.4" height="2.3"/>
<path class="st2" d="M-82,297h-5.8c-0.5,0-0.9-0.4-0.9-0.9v-5.8c0-0.5,0.4-0.9,0.9-0.9h5.8c0.5,0,0.9,0.4,0.9,0.9v5.8
	C-81.1,296.7-81.4,297-82,297z"/>
<path class="st2" d="M-63.1,297h-5.8c-0.5,0-0.9-0.4-0.9-0.9v-5.8c0-0.5,0.4-0.9,0.9-0.9h5.8c0.5,0,0.9,0.4,0.9,0.9v5.8
	C-62.2,296.7-62.7,297-63.1,297z"/>
<path class="st2" d="M-53.7,297h-5.8c-0.5,0-0.9-0.4-0.9-0.9v-5.8c0-0.5,0.4-0.9,0.9-0.9h5.8c0.5,0,0.9,0.4,0.9,0.9v5.8
	C-52.9,296.7-53.3,297-53.7,297z"/>
<path class="st2" d="M-72.4,297.1h-5.9c-0.5,0-0.9-0.4-0.9-0.9v-5.9c0-0.5,0.4-0.9,0.9-0.9h5.9c0.5,0,0.9,0.4,0.9,0.9v5.9
	C-71.6,296.7-72,297.1-72.4,297.1z"/>
<path class="st2" d="M-82,316.6h-5.3c-0.6,0-1.2-0.5-1.2-1.2v-5.3c0-0.6,0.5-1.2,1.2-1.2h5.3c0.6,0,1.2,0.5,1.2,1.2v5.3
	C-80.9,316.2-81.4,316.6-82,316.6z"/>
<path class="st2" d="M-63.2,316.6h-5.3c-0.6,0-1.2-0.5-1.2-1.2v-5.3c0-0.6,0.5-1.2,1.2-1.2h5.3c0.6,0,1.2,0.5,1.2,1.2v5.3
	C-62,316.2-62.6,316.6-63.2,316.6z"/>
<path class="st2" d="M-53.7,316.6h-5.3c-0.6,0-1.2-0.5-1.2-1.2v-5.3c0-0.6,0.5-1.2,1.2-1.2h5.3c0.6,0,1.2,0.5,1.2,1.2v5.3
	C-52.7,316.2-53.1,316.6-53.7,316.6z"/>
<path class="st2" d="M-72.5,316.7H-78c-0.6,0-1.2-0.5-1.2-1.2v-5.4c0-0.6,0.5-1.2,1.2-1.2h5.4c0.6,0,1.2,0.5,1.2,1.2v5.4
	C-71.4,316.2-71.9,316.7-72.5,316.7z"/>
<path class="st2" d="M-81.8,286.3h-5.8c-0.5,0-0.9-0.4-0.9-0.9v-5.8c0-0.5,0.4-0.9,0.9-0.9h5.8c0.5,0,0.9,0.4,0.9,0.9v5.8
	C-80.9,286-81.3,286.3-81.8,286.3z"/>
<path class="st2" d="M-62.9,286.3h-5.8c-0.5,0-0.9-0.4-0.9-0.9v-5.8c0-0.5,0.4-0.9,0.9-0.9h5.8c0.5,0,0.9,0.4,0.9,0.9v5.8
	C-62,286-62.4,286.3-62.9,286.3z"/>
<path class="st2" d="M-53.6,286.3h-5.8c-0.5,0-0.9-0.4-0.9-0.9v-5.8c0-0.5,0.4-0.9,0.9-0.9h5.8c0.5,0,0.9,0.4,0.9,0.9v5.8
	C-52.7,286-53,286.3-53.6,286.3z"/>
<path class="st2" d="M-72.3,286.4h-5.9c-0.5,0-0.9-0.4-0.9-0.9v-5.9c0-0.5,0.4-0.9,0.9-0.9h5.9c0.5,0,0.9,0.4,0.9,0.9v5.9
	C-71.4,286-71.7,286.4-72.3,286.4z"/>
<path class="st2" d="M-82,275.7h-5.8c-0.5,0-0.9-0.4-0.9-0.9V269c0-0.5,0.4-0.9,0.9-0.9h5.8c0.5,0,0.9,0.4,0.9,0.9v5.8
	C-81.1,275.3-81.4,275.7-82,275.7z"/>
<path class="st1" d="M-63.1,275.7h-5.8c-0.5,0-0.9-0.4-0.9-0.9V269c0-0.5,0.4-0.9,0.9-0.9h5.8c0.5,0,0.9,0.4,0.9,0.9v5.8
	C-62.2,275.3-62.7,275.7-63.1,275.7z"/>
<path class="st2" d="M-53.7,275.7h-5.8c-0.5,0-0.9-0.4-0.9-0.9V269c0-0.5,0.4-0.9,0.9-0.9h5.8c0.5,0,0.9,0.4,0.9,0.9v5.8
	C-52.9,275.3-53.3,275.7-53.7,275.7z"/>
<path class="st2" d="M-72.4,275.8h-5.9c-0.5,0-0.9-0.4-0.9-0.9V269c0-0.5,0.4-0.9,0.9-0.9h5.9c0.5,0,0.9,0.4,0.9,0.9v5.9
	C-71.6,275.3-72,275.8-72.4,275.8z"/>
<path class="st2" d="M-82,265h-5.8c-0.5,0-0.9-0.4-0.9-0.9v-5.8c0-0.5,0.4-0.9,0.9-0.9h5.8c0.5,0,0.9,0.4,0.9,0.9v5.8
	C-81.1,264.6-81.4,265-82,265z"/>
<path class="st2" d="M-63.1,265h-5.8c-0.5,0-0.9-0.4-0.9-0.9v-5.8c0-0.5,0.4-0.9,0.9-0.9h5.8c0.5,0,0.9,0.4,0.9,0.9v5.8
	C-62.2,264.6-62.7,265-63.1,265z"/>
<path class="st2" d="M-53.7,265h-5.8c-0.5,0-0.9-0.4-0.9-0.9v-5.8c0-0.5,0.4-0.9,0.9-0.9h5.8c0.5,0,0.9,0.4,0.9,0.9v5.8
	C-52.9,264.6-53.3,265-53.7,265z"/>
<path class="st2" d="M-72.4,265.1h-5.9c-0.5,0-0.9-0.4-0.9-0.9v-5.9c0-0.5,0.4-0.9,0.9-0.9h5.9c0.5,0,0.9,0.4,0.9,0.9v5.9
	C-71.6,264.6-72,265.1-72.4,265.1z"/>
</svg>
