<?xml version="1.0" encoding="utf-8"?>
<!-- Generator: Adobe Illustrator 19.1.0, SVG Export Plug-In . SVG Version: 6.00 Build 0)  -->
<svg version="1.1" id="Layer_1" xmlns="http://www.w3.org/2000/svg" xmlns:xlink="http://www.w3.org/1999/xlink" x="0px" y="0px"
	 viewBox="-238.3 236.8 102.1 102.1" style="enable-background:new -238.3 236.8 102.1 102.1;" xml:space="preserve">
<style type="text/css">
	.st0{fill:#23485B;}
	.st1{fill:#BF1A16;}
	.st2{fill:none;stroke:#23485B;stroke-miterlimit:10;}
</style>
<path class="st0" d="M-169.4,242.5h-37.8c-3,0-5.4,2.4-5.4,5.4v77.8c0,3,2.4,5.4,5.4,5.4h37.8c3,0,5.4-2.4,5.4-5.4v-77.8
	C-164,245-166.4,242.5-169.4,242.5z M-188.3,328.5c-2.6,0-4.6-2-4.6-4.6s2-4.6,4.6-4.6c2.6,0,4.6,2,4.6,4.6
	S-185.8,328.5-188.3,328.5z M-166.8,314.4c0,1.2-0.9,2.2-2.2,2.2h-38.6c-1.2,0-2.2-0.9-2.2-2.2V252c0-1.2,0.9-2.2,2.2-2.2h38.5
	c1.2,0,2.2,0.9,2.2,2.2v62.4H-166.8z"/>
<path class="st0" d="M-198.7,293.1h-6.2c-0.3,0-0.4,0.1-0.4,0.4v18c0,0.3,0.1,0.4,0.4,0.4h6.2c0.3,0,0.4-0.1,0.4-0.4v-18
	C-198.3,293.3-198.5,293.1-198.7,293.1z"/>
<path class="st0" d="M-189.7,285.5h-6.2c-0.3,0-0.4,0.1-0.4,0.4v25.5c0,0.3,0.1,0.4,0.4,0.4h6.2c0.3,0,0.4-0.1,0.4-0.4v-25.5
	C-189.3,285.6-189.4,285.5-189.7,285.5z"/>
<path class="st0" d="M-180.6,290.6h-6.4c-0.3,0-0.4,0.1-0.4,0.4v20.4c0,0.3,0.1,0.4,0.4,0.4h6.2c0.3,0,0.4-0.1,0.4-0.4v-20.3
	C-180.2,290.9-180.5,290.6-180.6,290.6z"/>
<path class="st0" d="M-171.7,279.4h-6.2c-0.3,0-0.4,0.1-0.4,0.4v31.6c0,0.3,0.1,0.4,0.4,0.4h6.2c0.3,0,0.4-0.1,0.4-0.4v-31.6
	C-171.3,279.6-171.4,279.4-171.7,279.4z"/>
<path class="st1" d="M-171,270.1l-4.5,1.2c-0.1,0-0.3,0.3-0.1,0.4l1.1,1.1c0.1,0.1,0.1,0.3,0,0.3l-9.9,9.9l-8.6-8.6
	c-0.1-0.1-0.5-0.1-0.7,0l-12,12c-0.1,0.1-0.1,0.5,0,0.7c0.1,0.1,0.3,0.1,0.4,0.1c0.1,0,0.3,0,0.4-0.1l11.8-11.8l8.6,8.6
	c0.1,0.1,0.5,0.1,0.7,0l10.3-10.3c0.1-0.1,0.3-0.1,0.3,0l1.1,1.1c0.1,0.1,0.4,0.1,0.4-0.1l1.2-4.5
	C-170.8,270.2-170.9,270.1-171,270.1z"/>
</svg>
