<?xml version="1.0" encoding="utf-8"?>
<!-- Generator: Adobe Illustrator 19.1.0, SVG Export Plug-In . SVG Version: 6.00 Build 0)  -->
<svg version="1.1" id="Layer_1" xmlns="http://www.w3.org/2000/svg" xmlns:xlink="http://www.w3.org/1999/xlink" x="0px" y="0px"
	 viewBox="-356 236.8 102.1 102.1" style="enable-background:new -356 236.8 102.1 102.1;" xml:space="preserve">
<style type="text/css">
	.st0{fill:#23485B;}
	.st1{fill:#BF1A16;}
	.st2{fill:none;stroke:#23485B;stroke-miterlimit:10;}
</style>
<path class="st0" d="M-293,332.5h-24.6c-9,0-10-2.3-10-11.2v-55.1c0-8.9,1-11.2,10-11.2h24.6c9,0,10,2.3,10,11.2v55.1
	C-283.1,330.3-284,332.5-293,332.5z M-317.6,257.5c-7.3,0-7.5,0.7-7.5,8.7v55.1c0,8,0.2,8.7,7.5,8.7h24.6c7.3,0,7.5-0.7,7.5-8.7
	v-55.1c0-8-0.2-8.7-7.5-8.7C-293,257.5-317.6,257.5-317.6,257.5z"/>
<path class="st0" d="M-293.3,252.8h-24c-0.8,0-1.9-0.1-2.6-0.9c-0.7-0.9-0.5-1.9-0.4-2.8c0.1-0.5,0.2-0.9,0.2-1.4s-0.1-0.9-0.2-1.4
	c-0.2-0.9-0.4-2,0.4-2.8c0.7-0.8,1.8-0.9,2.6-0.9h24c0.8,0,1.9,0.1,2.6,0.9c0.7,0.9,0.5,1.9,0.4,2.8c-0.1,0.5-0.2,0.9-0.2,1.4
	s0.1,0.9,0.2,1.4c0.2,0.9,0.4,2-0.4,2.8C-291.4,252.7-292.6,252.8-293.3,252.8z M-318,250.3c0.1,0,0.3,0,0.6,0h24c0.3,0,0.5,0,0.6,0
	c0-0.2-0.1-0.5-0.1-0.8c-0.1-0.5-0.2-1.1-0.2-1.8c0-0.7,0.1-1.3,0.2-1.8c0-0.3,0.1-0.6,0.1-0.8c-0.1,0-0.3,0-0.6,0h-24
	c-0.3,0-0.5,0-0.6,0c0,0.2,0.1,0.5,0.1,0.8c0.1,0.5,0.2,1.1,0.2,1.8c0,0.7-0.1,1.3-0.2,1.8C-317.9,249.7-317.9,250.1-318,250.3z"/>
<path class="st1" d="M-317.6,327.5h24.6c3.4,0,4.4-0.2,4.5-0.4c0.5-0.6,0.5-3.6,0.5-5.8v-20.9c-2.1-1.4-5.5-3-7.2-4
	c-1.2-0.7-3.3-2.6-4.7-3.1c-3.4-1.2-10.7-1.4-14.3-1.2c-1.9,0.1-5,0.6-8.4,1.2v28.1c0,2.2,0,5.2,0.5,5.8
	C-322,327.3-321.1,327.5-317.6,327.5z"/>
<path class="st0" d="M-169.4,242.5h-37.8c-3,0-5.4,2.4-5.4,5.4v77.8c0,3,2.4,5.4,5.4,5.4h37.8c3,0,5.4-2.4,5.4-5.4v-77.8
	C-164,245-166.4,242.5-169.4,242.5z M-188.3,328.5c-2.6,0-4.6-2-4.6-4.6s2-4.6,4.6-4.6s4.6,2,4.6,4.6S-185.8,328.5-188.3,328.5z
	 M-166.8,314.4c0,1.2-0.9,2.2-2.2,2.2h-38.6c-1.2,0-2.2-0.9-2.2-2.2V252c0-1.2,0.9-2.2,2.2-2.2h38.5c1.2,0,2.2,0.9,2.2,2.2v62.4
	H-166.8z"/>
<path class="st0" d="M-198.7,293.1h-6.2c-0.3,0-0.4,0.1-0.4,0.4v18c0,0.3,0.1,0.4,0.4,0.4h6.2c0.3,0,0.4-0.1,0.4-0.4v-18
	C-198.3,293.3-198.5,293.1-198.7,293.1z"/>
<path class="st0" d="M-189.7,285.5h-6.2c-0.3,0-0.4,0.1-0.4,0.4v25.5c0,0.3,0.1,0.4,0.4,0.4h6.2c0.3,0,0.4-0.1,0.4-0.4v-25.5
	C-189.3,285.6-189.4,285.5-189.7,285.5z"/>
<path class="st0" d="M-180.6,290.6h-6.4c-0.3,0-0.4,0.1-0.4,0.4v20.4c0,0.3,0.1,0.4,0.4,0.4h6.2c0.3,0,0.4-0.1,0.4-0.4v-20.3
	C-180.2,290.9-180.5,290.6-180.6,290.6z"/>
<path class="st0" d="M-171.7,279.4h-6.2c-0.3,0-0.4,0.1-0.4,0.4v31.6c0,0.3,0.1,0.4,0.4,0.4h6.2c0.3,0,0.4-0.1,0.4-0.4v-31.6
	C-171.3,279.6-171.4,279.4-171.7,279.4z"/>
<path class="st1" d="M-171,270.1l-4.5,1.2c-0.1,0-0.3,0.3-0.1,0.4l1.1,1.1c0.1,0.1,0.1,0.3,0,0.3l-9.9,9.9l-8.6-8.6
	c-0.1-0.1-0.5-0.1-0.7,0l-12,12c-0.1,0.1-0.1,0.5,0,0.7c0.1,0.1,0.3,0.1,0.4,0.1c0.1,0,0.3,0,0.4-0.1l11.8-11.8l8.6,8.6
	c0.1,0.1,0.5,0.1,0.7,0l10.3-10.3c0.1-0.1,0.3-0.1,0.3,0l1.1,1.1c0.1,0.1,0.4,0.1,0.4-0.1l1.2-4.5
	C-170.8,270.2-170.9,270.1-171,270.1z"/>
<path class="st2" d="M-53.1,328.6h-35.1c-3.3,0-6-2.7-6-6V250c0-3.3,2.7-6,6-6h35.1c3.3,0,6,2.7,6,6v72.7
	C-47.2,326-49.8,328.6-53.1,328.6z"/>
<rect x="-91.9" y="253.5" class="st2" width="42.3" height="65.8"/>
<path class="st2" d="M-67.7,326.3h-5.9c-1,0-1.8-0.8-1.8-1.8v-1.2c0-1,0.8-1.8,1.8-1.8h5.9c1,0,1.8,0.8,1.8,1.8v1.2
	C-65.9,325.5-66.7,326.3-67.7,326.3z"/>
<rect x="-75.4" y="246.4" class="st2" width="9.4" height="2.3"/>
<path class="st2" d="M-82,297h-5.8c-0.5,0-0.9-0.4-0.9-0.9v-5.8c0-0.5,0.4-0.9,0.9-0.9h5.8c0.5,0,0.9,0.4,0.9,0.9v5.8
	C-81.1,296.7-81.4,297-82,297z"/>
<path class="st2" d="M-63.1,297h-5.8c-0.5,0-0.9-0.4-0.9-0.9v-5.8c0-0.5,0.4-0.9,0.9-0.9h5.8c0.5,0,0.9,0.4,0.9,0.9v5.8
	C-62.2,296.7-62.7,297-63.1,297z"/>
<path class="st2" d="M-53.7,297h-5.8c-0.5,0-0.9-0.4-0.9-0.9v-5.8c0-0.5,0.4-0.9,0.9-0.9h5.8c0.5,0,0.9,0.4,0.9,0.9v5.8
	C-52.9,296.7-53.3,297-53.7,297z"/>
<path class="st2" d="M-72.4,297.1h-5.9c-0.5,0-0.9-0.4-0.9-0.9v-5.9c0-0.5,0.4-0.9,0.9-0.9h5.9c0.5,0,0.9,0.4,0.9,0.9v5.9
	C-71.6,296.7-72,297.1-72.4,297.1z"/>
<path class="st2" d="M-82,316.6h-5.3c-0.6,0-1.2-0.5-1.2-1.2v-5.3c0-0.6,0.5-1.2,1.2-1.2h5.3c0.6,0,1.2,0.5,1.2,1.2v5.3
	C-80.9,316.2-81.4,316.6-82,316.6z"/>
<path class="st2" d="M-63.2,316.6h-5.3c-0.6,0-1.2-0.5-1.2-1.2v-5.3c0-0.6,0.5-1.2,1.2-1.2h5.3c0.6,0,1.2,0.5,1.2,1.2v5.3
	C-62,316.2-62.6,316.6-63.2,316.6z"/>
<path class="st2" d="M-53.7,316.6h-5.3c-0.6,0-1.2-0.5-1.2-1.2v-5.3c0-0.6,0.5-1.2,1.2-1.2h5.3c0.6,0,1.2,0.5,1.2,1.2v5.3
	C-52.7,316.2-53.1,316.6-53.7,316.6z"/>
<path class="st2" d="M-72.5,316.7H-78c-0.6,0-1.2-0.5-1.2-1.2v-5.4c0-0.6,0.5-1.2,1.2-1.2h5.4c0.6,0,1.2,0.5,1.2,1.2v5.4
	C-71.4,316.2-71.9,316.7-72.5,316.7z"/>
<path class="st2" d="M-81.8,286.3h-5.8c-0.5,0-0.9-0.4-0.9-0.9v-5.8c0-0.5,0.4-0.9,0.9-0.9h5.8c0.5,0,0.9,0.4,0.9,0.9v5.8
	C-80.9,286-81.3,286.3-81.8,286.3z"/>
<path class="st2" d="M-62.9,286.3h-5.8c-0.5,0-0.9-0.4-0.9-0.9v-5.8c0-0.5,0.4-0.9,0.9-0.9h5.8c0.5,0,0.9,0.4,0.9,0.9v5.8
	C-62,286-62.4,286.3-62.9,286.3z"/>
<path class="st2" d="M-53.6,286.3h-5.8c-0.5,0-0.9-0.4-0.9-0.9v-5.8c0-0.5,0.4-0.9,0.9-0.9h5.8c0.5,0,0.9,0.4,0.9,0.9v5.8
	C-52.7,286-53,286.3-53.6,286.3z"/>
<path class="st2" d="M-72.3,286.4h-5.9c-0.5,0-0.9-0.4-0.9-0.9v-5.9c0-0.5,0.4-0.9,0.9-0.9h5.9c0.5,0,0.9,0.4,0.9,0.9v5.9
	C-71.4,286-71.7,286.4-72.3,286.4z"/>
<path class="st2" d="M-82,275.7h-5.8c-0.5,0-0.9-0.4-0.9-0.9V269c0-0.5,0.4-0.9,0.9-0.9h5.8c0.5,0,0.9,0.4,0.9,0.9v5.8
	C-81.1,275.3-81.4,275.7-82,275.7z"/>
<path class="st1" d="M-63.1,275.7h-5.8c-0.5,0-0.9-0.4-0.9-0.9V269c0-0.5,0.4-0.9,0.9-0.9h5.8c0.5,0,0.9,0.4,0.9,0.9v5.8
	C-62.2,275.3-62.7,275.7-63.1,275.7z"/>
<path class="st2" d="M-53.7,275.7h-5.8c-0.5,0-0.9-0.4-0.9-0.9V269c0-0.5,0.4-0.9,0.9-0.9h5.8c0.5,0,0.9,0.4,0.9,0.9v5.8
	C-52.9,275.3-53.3,275.7-53.7,275.7z"/>
<path class="st2" d="M-72.4,275.8h-5.9c-0.5,0-0.9-0.4-0.9-0.9V269c0-0.5,0.4-0.9,0.9-0.9h5.9c0.5,0,0.9,0.4,0.9,0.9v5.9
	C-71.6,275.3-72,275.8-72.4,275.8z"/>
<path class="st2" d="M-82,265h-5.8c-0.5,0-0.9-0.4-0.9-0.9v-5.8c0-0.5,0.4-0.9,0.9-0.9h5.8c0.5,0,0.9,0.4,0.9,0.9v5.8
	C-81.1,264.6-81.4,265-82,265z"/>
<path class="st2" d="M-63.1,265h-5.8c-0.5,0-0.9-0.4-0.9-0.9v-5.8c0-0.5,0.4-0.9,0.9-0.9h5.8c0.5,0,0.9,0.4,0.9,0.9v5.8
	C-62.2,264.6-62.7,265-63.1,265z"/>
<path class="st2" d="M-53.7,265h-5.8c-0.5,0-0.9-0.4-0.9-0.9v-5.8c0-0.5,0.4-0.9,0.9-0.9h5.8c0.5,0,0.9,0.4,0.9,0.9v5.8
	C-52.9,264.6-53.3,265-53.7,265z"/>
<path class="st2" d="M-72.4,265.1h-5.9c-0.5,0-0.9-0.4-0.9-0.9v-5.9c0-0.5,0.4-0.9,0.9-0.9h5.9c0.5,0,0.9,0.4,0.9,0.9v5.9
	C-71.6,264.6-72,265.1-72.4,265.1z"/>
</svg>
