<?xml version="1.0" encoding="utf-8"?>
<!-- Generator: Adobe Illustrator 19.1.0, SVG Export Plug-In . SVG Version: 6.00 Build 0)  -->
<svg version="1.1" id="Layer_1" xmlns="http://www.w3.org/2000/svg" xmlns:xlink="http://www.w3.org/1999/xlink" x="0px" y="0px"
	 viewBox="-356 236.8 102.1 102.1" style="enable-background:new -356 236.8 102.1 102.1;" xml:space="preserve">
<style type="text/css">
	.st0{fill:#23485B;}
	.st1{fill:#BF1A16;}
	.st2{fill:none;stroke:#23485B;stroke-miterlimit:10;}
</style>
<path class="st0" d="M-293,332.5h-24.6c-9,0-10-2.3-10-11.2v-55.1c0-8.9,1-11.2,10-11.2h24.6c9,0,10,2.3,10,11.2v55.1
	C-283.1,330.3-284,332.5-293,332.5z M-317.6,257.5c-7.3,0-7.5,0.7-7.5,8.7v55.1c0,8,0.2,8.7,7.5,8.7h24.6c7.3,0,7.5-0.7,7.5-8.7
	v-55.1c0-8-0.2-8.7-7.5-8.7C-293,257.5-317.6,257.5-317.6,257.5z"/>
<path class="st0" d="M-293.3,252.8h-24c-0.8,0-1.9-0.1-2.6-0.9c-0.7-0.9-0.5-1.9-0.4-2.8c0.1-0.5,0.2-0.9,0.2-1.4s-0.1-0.9-0.2-1.4
	c-0.2-0.9-0.4-2,0.4-2.8c0.7-0.8,1.8-0.9,2.6-0.9h24c0.8,0,1.9,0.1,2.6,0.9c0.7,0.9,0.5,1.9,0.4,2.8c-0.1,0.5-0.2,0.9-0.2,1.4
	s0.1,0.9,0.2,1.4c0.2,0.9,0.4,2-0.4,2.8C-291.4,252.7-292.6,252.8-293.3,252.8z M-318,250.3c0.1,0,0.3,0,0.6,0h24c0.3,0,0.5,0,0.6,0
	c0-0.2-0.1-0.5-0.1-0.8c-0.1-0.5-0.2-1.1-0.2-1.8c0-0.7,0.1-1.3,0.2-1.8c0-0.3,0.1-0.6,0.1-0.8c-0.1,0-0.3,0-0.6,0h-24
	c-0.3,0-0.5,0-0.6,0c0,0.2,0.1,0.5,0.1,0.8c0.1,0.5,0.2,1.1,0.2,1.8c0,0.7-0.1,1.3-0.2,1.8C-317.9,249.7-317.9,250.1-318,250.3z"/>
<path class="st1" d="M-317.6,327.5h24.6c3.4,0,4.4-0.2,4.5-0.4c0.5-0.6,0.5-3.6,0.5-5.8v-20.9c-2.1-1.4-5.5-3-7.2-4
	c-1.2-0.7-3.3-2.6-4.7-3.1c-3.4-1.2-10.7-1.4-14.3-1.2c-1.9,0.1-5,0.6-8.4,1.2v28.1c0,2.2,0,5.2,0.5,5.8
	C-322,327.3-321.1,327.5-317.6,327.5z"/>
</svg>
